<svg width="262" height="113" viewBox="0 0 262 113" fill="none" xmlns="http://www.w3.org/2000/svg">
<path d="M34.0999 88.6119C29.3591 103.157 15.798 113 0.5 113V113L34.5438 14.573C37.5607 5.85079 45.7752 0 55.0045 0V0C64.2372 0 72.454 5.85513 75.4682 14.582L103.942 97.0231C106.644 104.846 100.834 113 92.5577 113V113C87.3412 113 82.7175 109.642 81.1038 104.681L55.5871 26.243C55.5055 25.9921 55.2717 25.8223 55.0079 25.8223V25.8223C54.7442 25.8223 54.5105 25.9919 54.4288 26.2426L34.0999 88.6119Z" fill="white"/>
<path d="M205.873 0C212.452 0 217.786 5.33375 217.786 11.9133V99.432C217.786 106.925 211.711 113 204.218 113V113C199.766 113 195.598 110.816 193.064 107.157L148.016 42.1128C147.915 41.966 147.748 41.8784 147.569 41.8784V41.8784C147.268 41.8784 147.025 42.122 147.025 42.4226V90.1067C147.025 102.75 136.775 113 124.132 113V113C123.555 113 123.088 112.533 123.088 111.956V13.7665C123.088 6.16347 129.251 0 136.854 0V0C141.387 0 145.629 2.23128 148.198 5.96618L192.77 70.7838C192.891 70.9607 193.092 71.0664 193.307 71.0664V71.0664C193.667 71.0664 193.959 70.7744 193.959 70.4143V11.9133C193.959 5.33375 199.293 0 205.873 0V0Z" fill="white"/>
<path d="M260.028 0C260.841 0 261.5 0.659133 261.5 1.47221V101.031C261.5 107.641 256.141 113 249.531 113H244.513C240.674 113 237.563 109.888 237.563 106.05V22.4649C237.563 10.0579 247.621 0 260.028 0V0Z" fill="white"/>
</svg>
