<?xml version="1.0" standalone="no"?>
<!DOCTYPE svg PUBLIC "-//W3C//DTD SVG 20010904//EN" "http://www.w3.org/TR/2001/REC-SVG-20010904/DTD/svg10.dtd">
<svg xmlns="http://www.w3.org/2000/svg" version="1.0" width="1024" height="1024" viewBox="0 0 1024.000000 1024.000000" preserveAspectRatio="xMidYMid meet">

<g transform="translate(0.000000,1024.000000) scale(0.100000,-0.100000)" fill="#ffffff" stroke="none">
<path d="M7080 9112 c-350 -207 -722 -553 -1109 -1032 -161 -199 -538 -695 -709 -932 -93 -130 -246 -320 -250 -310 -4 13 38 83 150 248 51 77 95 143 96 147 2 4 -18 5 -45 2 -730 -85 -1144 -167 -1583 -311 -224 -74 -197 -73 -450 -8 -172 45 -431 147 -790 311 -30 14 -77 34 -105 45 -27 10 -75 30 -105 45 -89 41 -209 93 -290 123 -41 16 -129 51 -195 78 -243 99 -705 245 -722 228 -27 -27 188 -430 374 -700 73 -107 359 -505 475 -661 81 -110 179 -260 251 -385 33 -58 77 -135 98 -172 22 -37 39 -71 39 -76 0 -5 -42 -92 -93 -193 -52 -101 -108 -220 -127 -264 -284 -688 -259 -1228 86 -1852 41 -73 175 -274 206 -309 17 -19 18 -32 12 -130 l-7 -110 -236 4 c-211 4 -262 1 -471 -23 -252 -29 -340 -49 -180 -40 52 3 275 8 496 12 l401 6 6 -39 c4 -21 3 -41 -1 -45 -10 -8 -67 -23 -202 -54 -124 -29 -272 -80 -440 -153 -138 -59 -303 -142 -297 -148 3 -3 56 15 119 41 62 25 140 55 173 66 33 11 69 24 80 29 11 5 67 23 125 41 58 17 110 35 115 39 6 4 24 10 40 13 17 3 75 19 130 35 55 17 117 33 138 37 37 7 37 7 58 -39 19 -44 19 -66 -1 -66 -13 0 -179 -81 -270 -131 -89 -49 -284 -178 -343 -226 -23 -19 -49 -40 -57 -46 -89 -70 -149 -121 -146 -124 2 -3 21 7 43 21 259 174 301 200 581 360 193 109 205 115 222 116 19 0 76 -108 64 -119 -5 -4 -34 -27 -64 -51 -155 -124 -302 -265 -406 -390 -30 -36 -76 -90 -102 -121 -26 -32 -71 -92 -100 -135 -58 -85 -61 -88 107 95 188 205 526 532 579 560 22 12 28 8 83 -49 32 -34 59 -66 59 -71 0 -6 -21 -36 -48 -67 -118 -142 -266 -387 -355 -587 -57 -129 -53 -137 13 -25 35 58 73 121 85 140 12 19 41 67 64 105 84 142 256 390 274 393 10 2 50 -15 90 -39 39 -23 107 -55 150 -69 69 -24 87 -36 145 -95 140 -142 348 -261 543 -312 92 -24 122 -27 259 -27 170 0 230 11 380 66 289 106 555 326 785 651 26 38 53 70 59 72 6 2 49 13 96 25 334 88 690 220 1135 420 88 40 199 90 247 111 49 21 122 55 164 74 42 20 162 74 268 121 105 47 209 94 230 105 21 11 60 28 85 38 25 11 93 39 151 63 58 24 195 82 305 127 312 130 541 230 770 336 39 18 93 43 120 55 28 12 106 49 175 82 69 33 161 77 205 98 249 118 325 155 325 161 0 3 -19 39 -42 78 -24 40 -52 88 -63 106 -217 372 -718 1081 -1004 1420 -111 132 -340 391 -409 462 l-60 62 -6 133 c-3 73 -11 241 -16 373 -30 677 -116 1135 -321 1689 -60 163 -220 506 -236 506 -5 0 -37 -17 -73 -38z m50 -378 c217 -462 341 -965 357 -1450 l6 -181 -57 -33 c-180 -102 -318 -301 -419 -600 -26 -74 -51 -153 -56 -175 -42 -170 -56 -186 -47 -53 8 109 41 268 87 410 19 60 28 102 22 111 -4 8 -52 60 -105 117 l-97 103 -31 -49 c-47 -74 -143 -268 -183 -369 -40 -100 -106 -318 -133 -438 -9 -43 -20 -80 -24 -82 -4 -2 -10 26 -14 63 -14 157 -2 395 30 580 9 51 14 95 12 98 -3 3 -97 -36 -209 -87 -246 -110 -409 -179 -427 -179 -7 0 36 55 95 123 101 114 246 287 303 362 14 18 52 68 86 111 33 44 108 149 167 235 l106 156 -34 33 c-122 118 -97 281 105 685 73 147 205 362 273 446 95 117 123 149 134 149 7 0 31 -39 53 -86z m-2001 -3508 c-2 -2 -76 -31 -164 -65 -549 -206 -782 -370 -997 -701 -75 -116 -122 -215 -234 -492 -15 -38 -31 -68 -36 -68 -5 0 -7 8 -4 18 3 9 12 53 21 97 31 159 121 392 198 515 75 121 218 266 350 357 77 52 324 180 387 200 19 6 89 30 155 54 170 60 346 106 324 85z m191 -184 c0 -14 -80 -164 -143 -270 -187 -312 -422 -549 -667 -672 -167 -84 -402 -139 -543 -125 -48 4 -77 11 -77 18 0 7 22 37 48 68 26 31 76 92 112 135 271 326 480 513 720 644 133 72 162 84 370 156 158 54 180 60 180 46z m-3232 -526 c160 -67 279 -145 392 -258 100 -100 196 -277 214 -395 l6 -43 -58 0 c-154 0 -324 111 -444 290 -75 112 -215 411 -202 431 7 12 -2 14 92 -25z m1402 -1445 c0 -14 -79 -82 -166 -143 -44 -32 -86 -63 -92 -71 -7 -7 -28 -58 -47 -113 -41 -114 -76 -194 -85 -194 -14 0 -62 61 -133 170 -85 131 -87 133 -182 185 -81 44 -147 90 -158 110 -5 10 9 15 65 19 93 7 562 36 648 39 36 2 84 4 108 5 23 1 42 -2 42 -7z"/>
</g>
</svg>
